PathFileType	4	(X/Y/Z)	 s08c0101.trc
DataRate	CameraRate	NumFrames	NumMarkers	Units	OrigDataRate	OrigDataStartFrame	OrigNumFrames
200	200	5	50	mm	200	501	2000
Frame#	Time	racr			lacr			c7			jug			rlel			rdr			llel			ldr			s2			lic			ric			lasi			rasi			rpsi			lpsi			rgt			lgt			rth1			rth2			rth3			rth4			rlfc			rmfc			rsh1			rsh2			rsh3			rsh4			rlmal			rmmal			rcal			rtoe			rmt5			lth1			lth2			lth4			lth3			llfc			lmfc			llmal			lmmal			lcal			lmt5			lsh1			lsh2			lsh3			lsh4			ltoe			SBIKE			LBIKE			RBIKE			
		X1	Y1	Z1	X2	Y2	Z2	X3	Y3	Z3	X4	Y4	Z4	X5	Y5	Z5	X6	Y6	Z6	X7	Y7	Z7	X8	Y8	Z8	X9	Y9	Z9	X10	Y10	Z10	X11	Y11	Z11	X12	Y12	Z12	X13	Y13	Z13	X14	Y14	Z14	X15	Y15	Z15	X16	Y16	Z16	X17	Y17	Z17	X18	Y18	Z18	X19	Y19	Z19	X20	Y20	Z20	X21	Y21	Z21	X22	Y22	Z22	X23	Y23	Z23	X24	Y24	Z24	X25	Y25	Z25	X26	Y26	Z26	X27	Y27	Z27	X28	Y28	Z28	X29	Y29	Z29	X30	Y30	Z30	X31	Y31	Z31	X32	Y32	Z32	X33	Y33	Z33	X34	Y34	Z34	X35	Y35	Z35	X36	Y36	Z36	X37	Y37	Z37	X38	Y38	Z38	X39	Y39	Z39	X40	Y40	Z40	X41	Y41	Z41	X42	Y42	Z42	X43	Y43	Z43	X44	Y44	Z44	X45	Y45	Z45	X46	Y46	Z46	X47	Y47	Z47	X48	Y48	Z48	X49	Y49	Z49	X50	Y50	Z50	
501	2.5050	586.364439	1352.390175	-89.884091	558.384007	1393.509220	-369.152859	531.975291	1425.458696	-216.777283	536.598438	1267.595642	-241.422665	599.855952	1107.488433	44.798335	794.235904	893.016061	-33.310713	585.879376	1128.205260	-474.877944	800.168259	926.633143	-420.447113	-35.960771	1231.195656	-165.693071	100.058691	1256.785886	-331.756062	150.113875	1192.942330	-27.757777	139.902294	1232.586121	-306.466860	157.652567	1145.181150	-69.948194	8.068748	1259.870215	-110.961417	-7.606991	1285.615224	-198.078653	50.266699	1083.083755	-12.615165	54.256927	1162.934341	-380.003601	147.457557	950.893955	-10.187733	213.320697	891.005909	-12.770100	240.388911	809.219408	-24.522128	243.345005	911.308494	-18.313330	301.460913	706.845074	-38.835600	288.472460	703.302371	-149.321672	223.110416	599.010551	-13.272290	211.040383	512.571647	-37.159303	158.739378	445.137602	-47.070885	240.245446	506.656763	-64.342557	101.026000	340.652291	-58.452112	130.416364	351.327410	-145.103608	28.376619	353.080088	-111.010225	265.611722	179.026668	-104.186821	174.434659	201.161887	-34.973118	153.139288	1070.705287	-402.799234	234.404345	1039.412210	-409.481454	256.615140	1066.947978	-398.404075	289.944835	970.298040	-418.242569	380.867754	867.400535	-403.237320	392.768086	843.600198	-296.034693	280.806383	461.933723	-390.258303	300.528197	484.741197	-305.072915	216.738188	415.023060	-351.625522	429.471146	428.321984	-418.247086	359.029202	739.642854	-422.924950	355.897986	655.812275	-402.500923	313.113507	579.108384	-401.989108	377.908376	654.965330	-369.731559	496.085581	486.212444	-352.261689	-134.237166	947.448383	-223.374529	26.968116	83.818750	-427.506624	19.491530	80.470426	-30.201925	
502	2.5100	586.414693	1350.525534	-89.841734	558.088225	1392.220321	-369.125125	531.980424	1423.858683	-216.986190	536.386404	1265.994992	-241.669275	599.499462	1106.045064	45.635961	794.765525	893.363413	-33.035884	584.882830	1126.617851	-474.844706	799.891617	926.433344	-420.171636	-35.889736	1229.336634	-165.547047	101.302301	1254.772496	-332.436515	149.867955	1191.205217	-27.673558	140.572068	1231.137308	-306.342135	157.217078	1143.612750	-69.678894	8.761992	1257.644234	-109.264032	-7.590108	1283.680526	-198.036853	50.048569	1081.516151	-11.822502	54.936405	1160.395073	-379.870312	148.629323	950.917201	-8.876664	215.227411	891.855920	-11.835356	243.048604	810.231020	-22.617076	244.974893	912.535546	-17.880131	304.753770	708.470263	-36.944203	292.086957	705.142090	-147.709059	224.833210	601.909100	-12.227519	211.197509	515.779413	-36.499996	157.710398	449.337601	-46.768838	240.475029	509.489382	-63.390774	98.085498	346.312537	-58.602695	127.666441	356.827561	-145.042643	25.401072	359.334369	-111.273383	261.464182	183.754697	-104.166393	170.374509	206.357019	-35.013126	153.314814	1067.363618	-402.503996	234.253518	1035.304842	-408.921087	256.667515	1062.709400	-398.114829	289.223460	965.688465	-417.327283	379.586283	862.598620	-402.334756	391.396814	838.743204	-295.165252	284.518399	455.626712	-390.422453	303.208897	478.507252	-306.213825	220.856096	408.224309	-351.762724	433.549471	422.649794	-418.057530	359.068474	734.370129	-422.322123	357.028356	650.508717	-402.132907	315.236271	573.176058	-401.921981	379.096190	649.824496	-369.287652	499.802358	480.938039	-351.998732	-134.233789	947.437701	-223.241242	26.985055	83.817282	-427.490680	19.496525	80.450487	-30.196234	
503	2.5150	586.673980	1348.570195	-89.838057	557.934766	1391.033669	-369.052353	532.125686	1422.254519	-217.123485	536.378105	1264.416338	-241.997937	599.007128	1104.524037	46.431182	795.349091	893.533092	-32.100218	584.051254	1124.987755	-474.656582	799.680573	926.243884	-419.886686	-35.737184	1227.943750	-164.489311	102.655310	1252.886917	-332.997005	149.713061	1189.826240	-27.749641	141.362905	1229.627921	-306.235715	156.865499	1142.159634	-69.477339	8.917895	1255.965018	-108.931551	-7.345065	1281.897656	-198.144712	50.263694	1079.978755	-10.997463	55.846621	1158.021934	-379.865923	150.045481	951.020710	-7.745999	217.436214	892.815031	-10.952681	246.308489	811.553410	-21.375813	246.787896	913.879362	-17.662226	307.891829	710.068278	-35.185570	295.592320	706.733058	-145.945773	226.575270	604.886653	-11.096590	211.412217	519.146217	-35.791942	156.719103	453.725153	-46.430804	240.581377	512.371088	-62.668897	95.302182	352.130951	-58.765374	125.272271	362.358199	-145.115586	22.525964	365.755036	-111.563346	257.547029	188.686943	-104.076667	166.515953	212.018164	-35.038723	153.692430	1064.079823	-402.218895	234.331488	1031.183100	-408.334851	256.962935	1058.451638	-397.737243	288.661010	961.070463	-416.389217	378.464418	857.728901	-401.332540	389.943275	833.834181	-294.426144	288.098652	449.340466	-390.522053	307.311886	472.511697	-304.679457	224.724147	401.705467	-351.943341	437.487655	416.924635	-417.943046	359.250966	729.040676	-421.596481	358.260297	645.083978	-401.711607	317.481695	567.307387	-401.685150	380.276313	644.741686	-368.837857	503.385202	475.381155	-351.731097	-134.270322	947.448779	-223.029876	27.015178	83.816988	-427.479814	19.495208	80.431228	-30.189607	
504	2.5200	587.103059	1346.596719	-89.887923	557.941283	1389.822047	-368.907156	532.420065	1420.635376	-217.044247	536.519663	1262.844760	-242.246002	598.429430	1102.896402	47.091213	795.017220	893.258046	-31.564276	583.353610	1123.417873	-474.325940	799.509498	926.054826	-419.615773	-35.290722	1226.493321	-164.105908	104.116654	1251.126437	-333.458273	149.583408	1188.670984	-28.276251	142.271125	1228.063895	-306.149871	156.668287	1140.903589	-69.247918	9.289760	1254.478878	-108.832215	-6.741890	1280.234181	-198.439257	50.463237	1079.071551	-10.200990	57.118289	1155.816061	-379.801603	151.687778	951.393279	-6.879518	219.761416	893.945342	-10.326408	249.601421	812.918303	-20.195903	248.792183	915.291618	-17.574200	311.142431	711.864109	-33.172745	298.916042	708.375521	-144.164310	228.179912	607.890529	-10.003416	211.677632	522.542419	-35.116106	155.767268	458.168094	-46.104588	240.073871	515.409274	-63.107072	92.559505	358.178806	-58.982277	122.874363	368.042408	-145.176401	19.829511	372.230327	-111.937207	253.831124	193.921200	-103.968462	162.826733	217.814314	-35.049719	154.326489	1060.878001	-401.959915	234.667559	1027.166939	-407.742384	257.486681	1054.264104	-397.326212	288.283423	956.529715	-415.425706	377.395491	852.863618	-400.293555	388.450587	828.645621	-293.616219	291.702596	443.009377	-390.556678	311.053625	466.278845	-304.514365	228.449830	395.178959	-352.127821	441.270963	410.946720	-417.747790	359.345238	723.793511	-420.899774	359.727608	639.829146	-401.507166	319.721545	561.429370	-401.202640	381.406466	639.601414	-368.458432	506.920503	469.616507	-351.423992	-134.239755	947.416106	-222.940004	27.037837	83.811948	-427.471422	19.534985	80.413564	-30.182900	
505	2.5250	587.641097	1344.713202	-89.921123	558.131979	1388.534641	-368.726014	532.921683	1419.102849	-216.890372	536.641253	1261.347005	-242.369243	597.689389	1101.311391	47.800259	794.698107	892.941116	-31.260613	582.459616	1121.825066	-474.283240	799.332438	925.798575	-419.363736	-34.639205	1225.215087	-163.908302	105.685268	1249.488342	-333.841062	149.593388	1187.763138	-28.391284	143.293053	1226.451169	-306.086870	156.613288	1139.835767	-69.084880	9.845560	1253.154317	-108.872799	-5.876339	1278.860081	-198.851274	50.932119	1078.176374	-9.473477	58.640336	1153.729112	-379.826169	153.504125	951.995531	-6.354453	222.267783	895.292766	-9.785733	252.786501	814.515573	-18.915791	250.906521	916.928795	-17.602124	314.338937	713.947340	-31.491071	302.183548	710.017081	-142.366770	229.823625	610.876510	-8.931603	211.816989	526.040457	-34.486271	154.825821	462.712928	-46.001675	240.799024	518.519290	-61.224771	90.044551	364.309539	-59.299356	120.825645	373.877259	-145.404440	17.350260	378.909551	-112.344601	250.358544	199.347331	-103.740393	159.346438	223.863980	-35.079090	155.259747	1057.860686	-401.634347	235.240526	1023.254907	-407.132240	258.357317	1050.115006	-396.786969	288.121485	952.000836	-414.442274	376.377897	848.103540	-399.240733	387.010937	823.570493	-292.586216	295.105811	436.836024	-390.743101	314.308761	460.539114	-304.408876	231.976507	388.981315	-352.474768	444.971615	404.853666	-417.524134	359.421301	718.440370	-420.234364	360.891192	634.544497	-401.220399	321.845237	555.619889	-401.010372	382.484964	634.402731	-367.855620	510.423083	463.494691	-351.063134	-134.207188	947.427320	-222.843217	27.021099	83.937703	-427.561900	19.524727	80.408678	-30.159558	
